<?xml version="1.0" encoding="UTF-8"?>
<!DOCTYPE svg PUBLIC "-//W3C//DTD SVG 1.1//EN" "http://www.w3.org/Graphics/SVG/1.1/DTD/svg11.dtd">
<!-- Creator: CorelDRAW X7 -->
<svg xmlns="http://www.w3.org/2000/svg" xml:space="preserve" width="135.467mm" height="135.467mm" version="1.1" style="shape-rendering:geometricPrecision; text-rendering:geometricPrecision; image-rendering:optimizeQuality; fill-rule:evenodd; clip-rule:evenodd"
viewBox="0 0 13547 13547"
 xmlns:xlink="http://www.w3.org/1999/xlink">
 <defs>
  <style type="text/css">
   <![CDATA[
    .fil3 {fill:none}
    .fil1 {fill:#01AFF0}
    .fil0 {fill:#01AFF0}
    .fil2 {fill:#FDFEFF}
   ]]>
  </style>
   <clipPath id="id0">
    <path d="M1651 5l10222 0c914,0 1662,748 1662,1662l0 10222c0,914 -748,1662 -1662,1662l-10222 0c-915,0 -1663,-748 -1663,-1662l0 -10222c0,-914 748,-1662 1663,-1662z"/>
   </clipPath>
 </defs>
 <g id="Camada_x0020_1">
  <metadata id="CorelCorpID_0Corel-Layer"/>
  <path class="fil0" d="M1651 5l10222 0c914,0 1662,748 1662,1662l0 10222c0,914 -748,1662 -1662,1662l-10222 0c-915,0 -1663,-748 -1663,-1662l0 -10222c0,-914 748,-1662 1663,-1662z"/>
  <g style="clip-path:url(#id0)">
   <g id="_349101696">
    <g>
     <path id="1" class="fil1" d="M1460 5063c-545,-2352 1767,-4414 4139,-3463 548,219 1051,-181 2452,174 2548,646 4061,3003 3800,5595 -55,555 145,609 248,1130 489,2448 -1909,4392 -4155,3436 -541,-230 -463,-72 -1106,-61 -3078,51 -5456,-2534 -5116,-5804 36,-342 -178,-645 -262,-1007zm-3818 1497c0,2229 708,4501 2121,6076 1907,2127 4097,3262 7217,3262 1731,0 3782,-723 5001,-1628 489,-363 1095,-828 1475,-1305 877,-1103 725,-652 1579,-2342 1510,-2987 947,-7243 -1266,-9711 -1035,-1154 -1666,-1656 -3154,-2407 -2988,-1509 -7241,-949 -9711,1266l-828 812c-100,126 -167,174 -278,292 -1206,1280 -2156,3757 -2156,5685z"/>
     <path class="fil2" d="M5976 3462c806,-143 1554,-44 2235,297 312,156 560,328 754,604 216,308 206,726 -64,913 -700,486 -972,-452 -1659,-685 -654,-222 -1716,-96 -1667,677 65,1023 2579,456 3506,1686 418,554 381,1538 -60,2074 -882,1070 -3003,1025 -4024,442 -814,-465 -1030,-1291 -584,-1630 652,-495 1014,513 1553,804 606,326 1612,209 1879,-294 734,-1383 -2141,-990 -3186,-1893 -498,-429 -634,-1323 -285,-2003 268,-522 832,-856 1602,-992zm-4516 1601c84,362 298,665 262,1007 -340,3270 2038,5855 5116,5804 643,-11 565,-169 1106,61 2246,956 4644,-988 4155,-3436 -103,-521 -303,-575 -248,-1130 261,-2592 -1252,-4949 -3800,-5595 -1401,-355 -1904,45 -2452,-174 -2372,-951 -4684,1111 -4139,3463z"/>
     <path class="fil1" d="M5976 3462c-770,136 -1334,470 -1602,992 -349,680 -213,1574 285,2003 1045,903 3920,510 3186,1893 -267,503 -1273,620 -1879,294 -539,-291 -901,-1299 -1553,-804 -446,339 -230,1165 584,1630 1021,583 3142,628 4024,-442 441,-536 478,-1520 60,-2074 -927,-1230 -3441,-663 -3506,-1686 -49,-773 1013,-899 1667,-677 687,233 959,1171 1659,685 270,-187 280,-605 64,-913 -194,-276 -442,-448 -754,-604 -681,-341 -1429,-440 -2235,-297z"/>
    </g>
   </g>
  </g>
  <path class="fil3" d="M1651 5l10222 0c914,0 1662,748 1662,1662l0 10222c0,914 -748,1662 -1662,1662l-10222 0c-915,0 -1663,-748 -1663,-1662l0 -10222c0,-914 748,-1662 1663,-1662z"/>
 </g>
</svg>
