<?xml version="1.0" encoding="UTF-8"?>
<!DOCTYPE svg PUBLIC "-//W3C//DTD SVG 1.1//EN" "http://www.w3.org/Graphics/SVG/1.1/DTD/svg11.dtd">
<!-- Creator: CorelDRAW X7 -->
<svg xmlns="http://www.w3.org/2000/svg" xml:space="preserve" width="135.467mm" height="135.467mm" version="1.1" style="shape-rendering:geometricPrecision; text-rendering:geometricPrecision; image-rendering:optimizeQuality; fill-rule:evenodd; clip-rule:evenodd"
viewBox="0 0 13547 13547"
 xmlns:xlink="http://www.w3.org/1999/xlink">
 <defs>
  <style type="text/css">
   <![CDATA[
    .fil1 {fill:#65BC54}
    .fil0 {fill:#65BC54}
    .fil2 {fill:#FEFEFE}
   ]]>
  </style>
 </defs>
 <g id="Camada_x0020_1">
  <metadata id="CorelCorpID_0Corel-Layer"/>
  <path class="fil0" d="M1682 -6l10160 0c935,0 1694,758 1694,1693l0 10160c0,935 -759,1694 -1694,1694l-10160 0c-935,0 -1693,-759 -1693,-1694l0 -10160c0,-935 758,-1693 1693,-1693z"/>
  <g id="_356394392">
   <path class="fil1" d="M4903 4418c179,-52 499,-41 584,81 78,111 331,776 414,961 94,209 82,306 -40,482 -305,437 -486,265 -70,846l483 548c274,231 706,525 1076,648 217,72 317,-145 408,-251 407,-475 181,-529 1272,-4 149,72 367,115 380,319 35,587 -399,989 -1008,1100 -406,75 -745,-54 -1106,-188 -595,-219 -882,-351 -1348,-716 -327,-256 -769,-738 -1004,-1059 -411,-559 -876,-1210 -654,-1994 87,-310 356,-699 613,-773zm-2206 6472c280,-61 621,-193 899,-281 145,-46 293,-90 443,-139 189,-62 280,-137 436,-39 478,300 1042,519 1693,611 1309,185 2523,-231 3468,-1033 1634,-1388 2026,-3886 701,-5757 -88,-123 -170,-218 -256,-326 -146,-181 -397,-400 -582,-555 -1671,-1407 -4340,-1207 -5848,334 -1378,1407 -1710,3806 -494,5480 114,155 42,207 -26,404 -112,329 -373,1041 -434,1301z"/>
   <path class="fil2" d="M2697 10890c61,-260 322,-972 434,-1301 68,-197 140,-249 26,-404 -1216,-1674 -884,-4073 494,-5480 1508,-1541 4177,-1741 5848,-334 185,155 436,374 582,555 86,108 168,203 256,326 1325,1871 933,4369 -701,5757 -945,802 -2159,1218 -3468,1033 -651,-92 -1215,-311 -1693,-611 -156,-98 -247,-23 -436,39 -150,49 -298,93 -443,139 -278,88 -619,220 -899,281zm-1308 1279c309,-66 743,-230 1056,-329l1586 -504c299,-99 270,-42 519,79 1898,918 4033,466 5442,-627 916,-710 1830,-1949 1959,-3687 129,-1751 -706,-3266 -1560,-4041 -69,-63 -95,-94 -174,-168 -62,-57 -109,-88 -189,-156 -134,-112 -261,-199 -415,-300 -2253,-1483 -5254,-986 -6986,1199 -1093,1378 -1431,3610 -507,5422 235,461 238,237 -24,1005 -120,354 -233,693 -354,1048 -112,328 -278,741 -353,1059z"/>
   <path class="fil2" d="M4903 4418c-257,74 -526,463 -613,773 -222,784 243,1435 654,1994 235,321 677,803 1004,1059 466,365 753,497 1348,716 361,134 700,263 1106,188 609,-111 1043,-513 1008,-1100 -13,-204 -231,-247 -380,-319 -1091,-525 -865,-471 -1272,4 -91,106 -191,323 -408,251 -370,-123 -802,-417 -1076,-648l-483 -548c-416,-581 -235,-409 70,-846 122,-176 134,-273 40,-482 -83,-185 -336,-850 -414,-961 -85,-122 -405,-133 -584,-81z"/>
  </g>
 </g>
</svg>
